<svg xmlns="http://www.w3.org/2000/svg" viewBox="0 0 15 15">
	<path fill="currentColor" d="m14 0l-.01 3.73l-.56 1.12a6.5 6.5 0 0 1 .45 1.39L15 4l-.04-.02h.03V0zm-.12 6.24l-1.46 2.9l.22.12l-1 1.74l-1.3-.74l.99-1.74l.21.12l1.89-3.79A6.5 6.5 0 0 0 7.5 1A6.5 6.5 0 0 0 1 7.5A6.5 6.5 0 0 0 7.5 14A6.5 6.5 0 0 0 14 7.5a6.5 6.5 0 0 0-.12-1.26M7.5 4.54a2.95 2.95 0 0 1 2.96 2.96a2.95 2.95 0 0 1-2.96 2.96A2.95 2.95 0 0 1 4.54 7.5A2.95 2.95 0 0 1 7.5 4.54m0 1.89A1.07 1.07 0 0 0 6.43 7.5A1.07 1.07 0 0 0 7.5 8.57A1.07 1.07 0 0 0 8.57 7.5A1.07 1.07 0 0 0 7.5 6.43" />
</svg>
